<?xml version="1.0" encoding="utf-8" standalone="no"?>
<!DOCTYPE svg PUBLIC "-//W3C//DTD SVG 1.1//EN"
  "http://www.w3.org/Graphics/SVG/1.1/DTD/svg11.dtd">
<!-- Created with matplotlib (http://matplotlib.org/) -->
<svg height="360pt" version="1.1" viewBox="0 0 432 360" width="432pt" xmlns="http://www.w3.org/2000/svg" xmlns:xlink="http://www.w3.org/1999/xlink">
 <defs>
  <style type="text/css">
*{stroke-linecap:butt;stroke-linejoin:round;}
  </style>
 </defs>
 <g id="figure_1">
  <g id="patch_1">
   <path d="M 0 360 
L 432 360 
L 432 0 
L 0 0 
z
" style="fill:#ffffff;"/>
  </g>
  <g id="axes_1">
   <g id="patch_2">
    <path d="M 54 315 
L 321.84 315 
L 321.84 43.2 
L 54 43.2 
z
" style="fill:#ffffff;"/>
   </g>
   <g id="matplotlib.axis_1">
    <g id="xtick_1">
     <g id="line2d_1">
      <defs>
       <path d="M 0 0 
L 0 3.5 
" id="m67e7cbc352" style="stroke:#000000;stroke-width:0.8;"/>
      </defs>
      <g>
       <use style="stroke:#000000;stroke-width:0.8;" x="54" xlink:href="#m67e7cbc352" y="315"/>
      </g>
     </g>
     <g id="text_1">
      <!-- $-3$ -->
      <defs>
       <path d="M 65.90625 23 
C 67.59375 23 69.40625 23 69.40625 25 
C 69.40625 27 67.59375 27 65.90625 27 
L 11.796875 27 
C 10.09375 27 8.296875 27 8.296875 25 
C 8.296875 23 10.09375 23 11.796875 23 
z
" id="CMSY10-0"/>
       <path d="M 22.09375 33.703125 
C 31 33.703125 34.90625 25.96875 34.90625 17.03125 
C 34.90625 5 28.5 0.390625 22.703125 0.390625 
C 17.40625 0.390625 8.796875 3.03125 6.09375 10.828125 
C 6.59375 10.625 7.09375 10.625 7.59375 10.625 
C 10 10.625 11.796875 12.21875 11.796875 14.8125 
C 11.796875 17.703125 9.59375 19 7.59375 19 
C 5.90625 19 3.296875 18.203125 3.296875 14.46875 
C 3.296875 5.234375 12.296875 -2 22.90625 -2 
C 34 -2 42.5 6.71875 42.5 16.953125 
C 42.5 26.671875 34.5 33.703125 25 34.796875 
C 32.59375 36.375 39.90625 43.0625 39.90625 52.015625 
C 39.90625 59.6875 32 65.296875 23 65.296875 
C 13.90625 65.296875 5.90625 59.828125 5.90625 52.015625 
C 5.90625 48.59375 8.5 48 9.796875 48 
C 11.90625 48 13.703125 49.296875 13.703125 51.890625 
C 13.703125 54.46875 11.90625 55.765625 9.796875 55.765625 
C 9.40625 55.765625 8.90625 55.765625 8.5 55.578125 
C 11.40625 61.859375 19.296875 63 22.796875 63 
C 26.296875 63 32.90625 61.328125 32.90625 51.875 
C 32.90625 49.109375 32.5 44.1875 29.09375 39.84375 
C 26.09375 36 22.703125 36 19.40625 35.6875 
C 18.90625 35.6875 16.59375 35.453125 16.203125 35.453125 
C 15.5 35.359375 15.09375 35.265625 15.09375 34.5 
C 15.09375 33.796875 15.203125 33.703125 17.203125 33.703125 
z
" id="CMR17-51"/>
      </defs>
      <g transform="translate(45.161638 331.685876)scale(0.14 -0.14)">
       <use transform="scale(0.996264)" xlink:href="#CMSY10-0"/>
       <use transform="translate(77.487468 0)scale(0.996264)" xlink:href="#CMR17-51"/>
      </g>
     </g>
    </g>
    <g id="xtick_2">
     <g id="line2d_2">
      <g>
       <use style="stroke:#000000;stroke-width:0.8;" x="98.64" xlink:href="#m67e7cbc352" y="315"/>
      </g>
     </g>
     <g id="text_2">
      <!-- $-2$ -->
      <defs>
       <path d="M 41.703125 15.453125 
L 39.90625 15.453125 
C 38.90625 8.375 38.09375 7.171875 37.703125 6.5625 
C 37.203125 5.765625 30 5.765625 28.59375 5.765625 
L 9.40625 5.765625 
C 13 9.671875 20 16.75 28.5 24.953125 
C 34.59375 30.734375 41.703125 37.53125 41.703125 47.421875 
C 41.703125 59.21875 32.296875 66 21.796875 66 
C 10.796875 66 4.09375 56.3125 4.09375 47.34375 
C 4.09375 43.4375 7 42.9375 8.203125 42.9375 
C 9.203125 42.9375 12.203125 43.546875 12.203125 47.03125 
C 12.203125 50.109375 9.59375 51 8.203125 51 
C 7.59375 51 7 50.90625 6.59375 50.703125 
C 8.5 59.21875 14.296875 63.40625 20.40625 63.40625 
C 29.09375 63.40625 34.796875 56.515625 34.796875 47.421875 
C 34.796875 38.734375 29.703125 31.25 24 24.75 
L 4.09375 2.28125 
L 4.09375 0 
L 39.296875 0 
z
" id="CMR17-50"/>
      </defs>
      <g transform="translate(89.801638 331.685876)scale(0.14 -0.14)">
       <use transform="scale(0.996264)" xlink:href="#CMSY10-0"/>
       <use transform="translate(77.487468 0)scale(0.996264)" xlink:href="#CMR17-50"/>
      </g>
     </g>
    </g>
    <g id="xtick_3">
     <g id="line2d_3">
      <g>
       <use style="stroke:#000000;stroke-width:0.8;" x="143.28" xlink:href="#m67e7cbc352" y="315"/>
      </g>
     </g>
     <g id="text_3">
      <!-- $-1$ -->
      <defs>
       <path d="M 26.59375 63.40625 
C 26.59375 65.5 26.5 65.5 25.09375 65.5 
C 21.203125 61.1875 15.296875 59.796875 9.703125 59.796875 
C 9.40625 59.796875 8.90625 59.796875 8.796875 59.5 
C 8.703125 59.296875 8.703125 59.09375 8.703125 57 
C 11.796875 57 17 57.59375 21 59.984375 
L 21 7.203125 
C 21 3.6875 20.796875 2.5 12.203125 2.5 
L 9.203125 2.5 
L 9.203125 0 
C 14 0 19 0 23.796875 0 
C 28.59375 0 33.59375 0 38.40625 0 
L 38.40625 2.5 
L 35.40625 2.5 
C 26.796875 2.5 26.59375 3.59375 26.59375 7.15625 
z
" id="CMR17-49"/>
      </defs>
      <g transform="translate(134.441638 331.685876)scale(0.14 -0.14)">
       <use transform="scale(0.996264)" xlink:href="#CMSY10-0"/>
       <use transform="translate(77.487468 0)scale(0.996264)" xlink:href="#CMR17-49"/>
      </g>
     </g>
    </g>
    <g id="xtick_4">
     <g id="line2d_4">
      <g>
       <use style="stroke:#000000;stroke-width:0.8;" x="187.92" xlink:href="#m67e7cbc352" y="315"/>
      </g>
     </g>
     <g id="text_4">
      <!-- $0$ -->
      <defs>
       <path d="M 42 31.640625 
C 42 37.75 41.90625 48.125 37.703125 56.109375 
C 34 63.109375 28.09375 65.59375 22.90625 65.59375 
C 18.09375 65.59375 12 63.40625 8.203125 56.203125 
C 4.203125 48.71875 3.796875 39.4375 3.796875 31.640625 
C 3.796875 25.953125 3.90625 17.28125 7 9.671875 
C 11.296875 -0.609375 19 -2 22.90625 -2 
C 27.5 -2 34.5 -0.109375 38.59375 9.375 
C 41.59375 16.28125 42 24.359375 42 31.640625 
z
M 22.90625 -0.40625 
C 16.5 -0.40625 12.703125 5.078125 11.296875 12.6875 
C 10.203125 18.5625 10.203125 27.15625 10.203125 32.75 
C 10.203125 40.4375 10.203125 46.828125 11.5 52.921875 
C 13.40625 61.390625 19 64 22.90625 64 
C 27 64 32.296875 61.296875 34.203125 53.125 
C 35.5 47.4375 35.59375 40.734375 35.59375 32.75 
C 35.59375 26.25 35.59375 18.265625 34.40625 12.375 
C 32.296875 1.484375 26.40625 -0.40625 22.90625 -0.40625 
z
" id="CMR17-48"/>
      </defs>
      <g transform="translate(184.505756 331.685876)scale(0.14 -0.14)">
       <use transform="scale(0.996264)" xlink:href="#CMR17-48"/>
      </g>
     </g>
    </g>
    <g id="xtick_5">
     <g id="line2d_5">
      <g>
       <use style="stroke:#000000;stroke-width:0.8;" x="232.56" xlink:href="#m67e7cbc352" y="315"/>
      </g>
     </g>
     <g id="text_5">
      <!-- $1$ -->
      <g transform="translate(229.145756 331.685876)scale(0.14 -0.14)">
       <use transform="scale(0.996264)" xlink:href="#CMR17-49"/>
      </g>
     </g>
    </g>
    <g id="xtick_6">
     <g id="line2d_6">
      <g>
       <use style="stroke:#000000;stroke-width:0.8;" x="277.2" xlink:href="#m67e7cbc352" y="315"/>
      </g>
     </g>
     <g id="text_6">
      <!-- $2$ -->
      <g transform="translate(273.785756 331.685876)scale(0.14 -0.14)">
       <use transform="scale(0.996264)" xlink:href="#CMR17-50"/>
      </g>
     </g>
    </g>
    <g id="xtick_7">
     <g id="line2d_7">
      <g>
       <use style="stroke:#000000;stroke-width:0.8;" x="321.84" xlink:href="#m67e7cbc352" y="315"/>
      </g>
     </g>
     <g id="text_7">
      <!-- $3$ -->
      <g transform="translate(318.425756 331.685876)scale(0.14 -0.14)">
       <use transform="scale(0.996264)" xlink:href="#CMR17-51"/>
      </g>
     </g>
    </g>
    <g id="text_8">
     <!-- $y_1$ -->
     <defs>
      <path d="M 26.296875 -10.9375 
C 23.59375 -14.671875 19.703125 -18 14.796875 -18 
C 13.59375 -18 8.796875 -18 7.296875 -13.890625 
C 7.59375 -13.984375 8.09375 -13.984375 8.296875 -13.984375 
C 11.296875 -13.984375 13.296875 -11.390625 13.296875 -9.09375 
C 13.296875 -6.796875 11.40625 -6 9.90625 -6 
C 8.296875 -6 4.796875 -7.15625 4.796875 -11.859375 
C 4.796875 -16.734375 9.09375 -20.09375 14.796875 -20.09375 
C 24.796875 -20.09375 34.90625 -10.9375 37.703125 0.09375 
L 47.5 38.828125 
C 47.59375 39.328125 47.796875 39.9375 47.796875 40.53125 
C 47.796875 42.015625 46.59375 43.015625 45.09375 43.015625 
C 44.203125 43.015625 42.09375 42.609375 41.296875 39.609375 
L 33.90625 10.28125 
C 33.40625 8.484375 33.40625 8.28125 32.59375 7.1875 
C 30.59375 4.390625 27.296875 1 22.5 1 
C 16.90625 1 16.40625 6.484375 16.40625 9.1875 
C 16.40625 14.875 19.09375 22.546875 21.796875 29.734375 
C 22.90625 32.625 23.5 34.03125 23.5 36.015625 
C 23.5 40.21875 20.5 44 15.59375 44 
C 6.40625 44 2.703125 29.53125 2.703125 28.734375 
C 2.703125 28.34375 3.09375 27.84375 3.796875 27.84375 
C 4.703125 27.84375 4.796875 28.234375 5.203125 29.640625 
C 7.59375 38.015625 11.40625 42.015625 15.296875 42.015625 
C 16.203125 42.015625 17.90625 42.015625 17.90625 38.71875 
C 17.90625 36.125 16.796875 33.234375 15.296875 29.4375 
C 10.40625 16.359375 10.40625 13.078125 10.40625 10.671875 
C 10.40625 1.203125 17.203125 -1 22.203125 -1 
C 25.09375 -1 28.703125 -0.09375 32.203125 3.59375 
L 32.296875 3.5 
C 30.796875 -2.296875 29.796875 -6.125 26.296875 -10.9375 
z
" id="CMMI12-121"/>
     </defs>
     <g transform="translate(182.0819 348.083781)scale(0.14 -0.14)">
      <use transform="translate(0 14.943915)scale(0.996264)" xlink:href="#CMMI12-121"/>
      <use transform="translate(47.564188 0)scale(0.697382)" xlink:href="#CMR17-49"/>
     </g>
    </g>
   </g>
   <g id="matplotlib.axis_2">
    <g id="ytick_1">
     <g id="line2d_8">
      <defs>
       <path d="M 0 0 
L -3.5 0 
" id="meed9df93bc" style="stroke:#000000;stroke-width:0.8;"/>
      </defs>
      <g>
       <use style="stroke:#000000;stroke-width:0.8;" x="54" xlink:href="#meed9df93bc" y="315"/>
      </g>
     </g>
     <g id="text_9">
      <!-- $-10$ -->
      <g transform="translate(22.494788 319.842938)scale(0.14 -0.14)">
       <use transform="scale(0.996264)" xlink:href="#CMSY10-0"/>
       <use transform="translate(77.487468 0)scale(0.996264)" xlink:href="#CMR17-49"/>
       <use transform="translate(123.177945 0)scale(0.996264)" xlink:href="#CMR17-48"/>
      </g>
     </g>
    </g>
    <g id="ytick_2">
     <g id="line2d_9">
      <g>
       <use style="stroke:#000000;stroke-width:0.8;" x="54" xlink:href="#meed9df93bc" y="269.7"/>
      </g>
     </g>
     <g id="text_10">
      <!-- $-8$ -->
      <defs>
       <path d="M 27.203125 35.375 
C 33.5 38.546875 39.90625 43.328125 39.90625 50.984375 
C 39.90625 60.015625 31.09375 65.296875 23 65.296875 
C 13.90625 65.296875 5.90625 58.734375 5.90625 49.6875 
C 5.90625 47.203125 6.5 42.921875 10.40625 39.140625 
C 11.40625 38.15625 15.59375 35.171875 18.296875 33.28125 
C 13.796875 30.984375 3.296875 25.53125 3.296875 14.59375 
C 3.296875 4.359375 13.09375 -2 22.796875 -2 
C 33.5 -2 42.5 5.65625 42.5 15.78125 
C 42.5 24.84375 36.40625 29.015625 32.40625 31.703125 
z
M 14.09375 44.09375 
C 13.296875 44.59375 9.296875 47.671875 9.296875 52.359375 
C 9.296875 58.421875 15.59375 63 22.796875 63 
C 30.703125 63 36.5 57.4375 36.5 50.96875 
C 36.5 41.703125 26.09375 36.421875 25.59375 36.421875 
C 25.5 36.421875 25.40625 36.421875 24.59375 37.03125 
z
M 32.5 23.734375 
C 34 22.640625 38.796875 19.375 38.796875 13.296875 
C 38.796875 5.953125 31.40625 0.390625 23 0.390625 
C 13.90625 0.390625 7 6.84375 7 14.6875 
C 7 22.546875 13.09375 29.09375 20 32.1875 
z
" id="CMR17-56"/>
      </defs>
      <g transform="translate(29.323276 274.542938)scale(0.14 -0.14)">
       <use transform="scale(0.996264)" xlink:href="#CMSY10-0"/>
       <use transform="translate(77.487468 0)scale(0.996264)" xlink:href="#CMR17-56"/>
      </g>
     </g>
    </g>
    <g id="ytick_3">
     <g id="line2d_10">
      <g>
       <use style="stroke:#000000;stroke-width:0.8;" x="54" xlink:href="#meed9df93bc" y="224.4"/>
      </g>
     </g>
     <g id="text_11">
      <!-- $-6$ -->
      <defs>
       <path d="M 10.59375 34 
C 10.59375 57.65625 21.796875 63 28.296875 63 
C 30.40625 63 35.5 62.640625 37.5 59 
C 35.90625 59 32.90625 59 32.90625 55.515625 
C 32.90625 52.828125 35.09375 51.921875 36.5 51.921875 
C 37.40625 51.921875 40.09375 52.3125 40.09375 55.625 
C 40.09375 61.78125 35.09375 65.296875 28.203125 65.296875 
C 16.296875 65.296875 3.796875 52.96875 3.796875 31 
C 3.796875 3.953125 15.09375 -2 23.09375 -2 
C 32.796875 -2 42 6.671875 42 20.046875 
C 42 32.515625 33.90625 41.59375 23.703125 41.59375 
C 17.59375 41.59375 13.09375 37.609375 10.59375 30.625 
z
M 23.09375 0.390625 
C 10.796875 0.390625 10.796875 18.75 10.796875 22.4375 
C 10.796875 29.625 14.203125 40 23.5 40 
C 25.203125 40 30.09375 40 33.40625 33.125 
C 35.203125 29.21875 35.203125 25.140625 35.203125 20.140625 
C 35.203125 14.75 35.203125 10.78125 33.09375 6.78125 
C 30.90625 2.671875 27.703125 0.390625 23.09375 0.390625 
z
" id="CMR17-54"/>
      </defs>
      <g transform="translate(29.323276 229.242938)scale(0.14 -0.14)">
       <use transform="scale(0.996264)" xlink:href="#CMSY10-0"/>
       <use transform="translate(77.487468 0)scale(0.996264)" xlink:href="#CMR17-54"/>
      </g>
     </g>
    </g>
    <g id="ytick_4">
     <g id="line2d_11">
      <g>
       <use style="stroke:#000000;stroke-width:0.8;" x="54" xlink:href="#meed9df93bc" y="179.1"/>
      </g>
     </g>
     <g id="text_12">
      <!-- $-4$ -->
      <defs>
       <path d="M 33.59375 64.40625 
C 33.59375 66.5 33.5 66.5 31.703125 66.5 
L 2 19.59375 
L 2 17 
L 27.796875 17 
L 27.796875 7.140625 
C 27.796875 3.5 27.59375 2.5 20.59375 2.5 
L 18.703125 2.5 
L 18.703125 0 
C 21.90625 0 27.296875 0 30.703125 0 
C 34.09375 0 39.5 0 42.703125 0 
L 42.703125 2.5 
L 40.796875 2.5 
C 33.796875 2.5 33.59375 3.5 33.59375 7.140625 
L 33.59375 17 
L 43.796875 17 
L 43.796875 19.59375 
L 33.59375 19.59375 
z
M 28.09375 57.859375 
L 28.09375 19.59375 
L 4 19.59375 
z
" id="CMR17-52"/>
      </defs>
      <g transform="translate(29.323276 183.942938)scale(0.14 -0.14)">
       <use transform="scale(0.996264)" xlink:href="#CMSY10-0"/>
       <use transform="translate(77.487468 0)scale(0.996264)" xlink:href="#CMR17-52"/>
      </g>
     </g>
    </g>
    <g id="ytick_5">
     <g id="line2d_12">
      <g>
       <use style="stroke:#000000;stroke-width:0.8;" x="54" xlink:href="#meed9df93bc" y="133.8"/>
      </g>
     </g>
     <g id="text_13">
      <!-- $-2$ -->
      <g transform="translate(29.323276 138.642938)scale(0.14 -0.14)">
       <use transform="scale(0.996264)" xlink:href="#CMSY10-0"/>
       <use transform="translate(77.487468 0)scale(0.996264)" xlink:href="#CMR17-50"/>
      </g>
     </g>
    </g>
    <g id="ytick_6">
     <g id="line2d_13">
      <g>
       <use style="stroke:#000000;stroke-width:0.8;" x="54" xlink:href="#meed9df93bc" y="88.5"/>
      </g>
     </g>
     <g id="text_14">
      <!-- $0$ -->
      <g transform="translate(40.171511 93.342938)scale(0.14 -0.14)">
       <use transform="scale(0.996264)" xlink:href="#CMR17-48"/>
      </g>
     </g>
    </g>
    <g id="ytick_7">
     <g id="line2d_14">
      <g>
       <use style="stroke:#000000;stroke-width:0.8;" x="54" xlink:href="#meed9df93bc" y="43.2"/>
      </g>
     </g>
     <g id="text_15">
      <!-- $2$ -->
      <g transform="translate(40.171511 48.042938)scale(0.14 -0.14)">
       <use transform="scale(0.996264)" xlink:href="#CMR17-50"/>
      </g>
     </g>
    </g>
    <g id="text_16">
     <!-- $y_2$ -->
     <g transform="translate(15.782759 184.9381)rotate(-90)scale(0.14 -0.14)">
      <use transform="translate(0 14.943915)scale(0.996264)" xlink:href="#CMMI12-121"/>
      <use transform="translate(47.564188 0)scale(0.697382)" xlink:href="#CMR17-50"/>
     </g>
    </g>
   </g>
   <g id="LineCollection_1">
    <path clip-path="url(#p30d70b29f5)" d="M 102.22168 236.871975 
L 102.267638 236.810955 
L 102.830188 236.279059 
L 103.794131 234.889984 
L 105.128284 232.555774 
L 106.414875 230.241627 
L 108.843621 225.641091 
L 111.352872 220.854014 
L 122.226848 200.641883 
L 127.408959 191.599604 
L 133.220056 182.02544 
L 138.029461 174.578861 
L 141.651766 169.259888 
L 145.46686 163.940904 
L 149.09077 159.153817 
L 152.539957 154.837115 
L 157.257299 149.337204 
L 161.479622 144.792565 
L 165.231346 141.069281 
L 169.312717 137.342371 
L 173.505912 133.88413 
L 176.684988 131.495116 
L 180.843987 128.699783 
L 184.187595 126.708029 
L 188.300536 124.580422 
L 192.375268 122.826424 
L 196.044306 121.539527 
L 198.665051 120.789933 
L 202.334088 119.987778 
L 205.478979 119.520811 
L 208.62387 119.252489 
L 211.768761 119.19768 
L 214.913663 119.345402 
L 218.582701 119.771765 
L 221.727592 120.359122 
L 225.704637 121.389045 
L 229.065678 122.509886 
L 232.869369 124.048526 
L 236.927911 126.009293 
L 240.122439 127.771821 
L 244.385817 130.431302 
L 248.459181 133.286197 
L 252.351119 136.282193 
L 256.84555 140.049441 
L 261.562892 144.303941 
L 271.521722 153.420907 
L 272.570016 154.101127 
L 273.094163 154.322798 
L 273.618309 154.24315 
L 273.781988 153.834833 
L 273.705551 152.77104 
L 273.229935 151.175341 
L 272.378752 149.047756 
L 270.87764 145.856357 
L 268.614667 141.601177 
L 265.805665 136.814089 
L 262.385954 131.495116 
L 258.942158 126.590795 
L 255.794048 122.452838 
L 252.286646 118.197646 
L 248.937636 114.474373 
L 245.265813 110.751078 
L 241.785515 107.559679 
L 239.024498 105.256901 
L 235.355449 102.507915 
L 231.685445 100.11311 
L 228.892155 98.517422 
L 226.444934 97.279154 
L 223.139837 95.857919 
L 220.679298 94.969545 
L 217.01025 93.933842 
L 213.865359 93.315458 
L 210.720468 92.939328 
L 207.575577 92.811763 
L 204.430686 92.926124 
L 201.285795 93.288961 
L 198.140904 93.890718 
L 194.996002 94.741312 
L 191.326964 96.0334 
L 188.097549 97.453629 
L 185.561329 98.737694 
L 181.892291 100.884303 
L 178.223243 103.366133 
L 174.814903 105.96399 
L 171.933461 108.380971 
L 168.211823 111.81487 
L 164.535225 115.538165 
L 160.684183 119.793357 
L 156.712267 124.580422 
L 153.027205 129.36751 
L 149.395066 134.418275 
L 146.3304 138.941685 
L 141.275695 146.920161 
L 135.404957 157.026221 
L 129.184292 168.727981 
L 122.663482 182.153774 
L 119.807595 188.408216 
L 114.539894 200.641883 
L 110.068247 211.811747 
L 106.321232 221.917807 
L 103.312349 230.960075 
L 102.699746 233.08767 
L 102.115501 235.747162 
L 102.083212 236.279059 
L 102.22168 236.871975 
L 102.22168 236.871975 
" style="fill:none;stroke:#f7fbff;stroke-width:1.5;"/>
   </g>
   <g id="LineCollection_2">
    <path clip-path="url(#p30d70b29f5)" d="M 120.042738 196.675323 
L 120.56689 196.584899 
L 123.223723 193.195304 
L 139.101181 169.259888 
L 144.153578 162.255278 
L 148.994428 155.962428 
L 153.064104 151.004994 
L 157.596433 145.856357 
L 161.638343 141.601177 
L 165.643679 137.702596 
L 169.613549 134.154597 
L 173.529069 130.96322 
L 177.699096 127.911126 
L 181.157742 125.644237 
L 185.037182 123.393599 
L 188.70622 121.547181 
L 191.851111 120.182299 
L 195.520159 118.844678 
L 198.665051 117.917901 
L 202.082464 117.133854 
L 205.478979 116.591487 
L 209.148028 116.270585 
L 212.292919 116.2064 
L 215.43781 116.340048 
L 218.582701 116.665731 
L 222.251738 117.291945 
L 226.013089 118.197646 
L 229.589825 119.305477 
L 233.258862 120.680977 
L 236.927911 122.284946 
L 240.596938 124.0998 
L 245.345517 126.708029 
L 253.176523 131.093714 
L 254.224817 131.515388 
L 255.27311 131.655689 
L 255.633282 131.495116 
L 255.862049 130.96322 
L 255.681945 129.899406 
L 255.022328 128.303718 
L 254.1677 126.708029 
L 252.478505 124.048526 
L 250.555768 121.376053 
L 247.935035 118.112422 
L 245.168101 115.006269 
L 242.009955 111.81487 
L 239.024498 109.105299 
L 235.810433 106.495887 
L 232.734716 104.281958 
L 229.49603 102.240695 
L 226.444934 100.579743 
L 223.300043 99.13056 
L 220.155141 97.944031 
L 217.534397 97.150408 
L 214.389506 96.437765 
L 211.244615 95.976095 
L 208.099724 95.768801 
L 204.954833 95.813481 
L 201.809942 96.10467 
L 198.665051 96.648001 
L 195.489053 97.453629 
L 192.899415 98.290146 
L 189.664162 99.581214 
L 187.13378 100.767481 
L 183.988878 102.468157 
L 180.319841 104.768123 
L 176.650803 107.404861 
L 172.981765 110.380722 
L 169.312717 113.69588 
L 165.643679 117.35318 
L 161.974641 121.35621 
L 158.786481 125.11234 
L 155.010765 129.899406 
L 150.751724 135.750297 
L 146.463 142.133073 
L 142.056986 149.219786 
L 138.749035 154.898636 
L 134.677091 162.345205 
L 130.872258 169.791784 
L 127.317877 177.238352 
L 123.711781 185.441924 
L 121.091037 192.180932 
L 120.026106 195.854795 
L 120.042738 196.675323 
L 120.042738 196.675323 
" style="fill:none;stroke:#d0e1f2;stroke-width:1.5;"/>
   </g>
   <g id="LineCollection_3">
    <path clip-path="url(#p30d70b29f5)" d="M 133.670606 171.957986 
L 136.29135 169.236986 
L 150.44336 151.509476 
L 154.636555 146.679646 
L 158.84273 142.133073 
L 163.076052 137.877893 
L 167.216119 134.039448 
L 170.885167 130.910153 
L 174.918646 127.771821 
L 178.7474 125.085907 
L 182.416438 122.785422 
L 186.085476 120.74929 
L 189.754524 118.98153 
L 192.926891 117.66575 
L 196.568453 116.4047 
L 200.237491 115.396681 
L 203.906539 114.653134 
L 207.05143 114.223775 
L 210.720468 113.961759 
L 214.389506 113.954953 
L 218.058554 114.196222 
L 221.727592 114.675638 
L 225.396629 115.380364 
L 229.589825 116.434244 
L 234.831302 118.031399 
L 239.024498 119.32709 
L 241.121085 119.745971 
L 241.645253 119.758058 
L 242.169399 119.643373 
L 242.622787 119.26146 
L 242.693546 118.693395 
L 242.373925 117.66575 
L 241.645253 116.378116 
L 240.596938 114.918768 
L 238.8428 112.878663 
L 236.403764 110.46133 
L 234.300622 108.623493 
L 231.535578 106.495887 
L 228.54152 104.501853 
L 225.920787 102.994545 
L 223.300043 101.69595 
L 220.155141 100.403788 
L 217.01025 99.390321 
L 213.865359 98.649253 
L 210.720468 98.174602 
L 207.575577 97.964064 
L 204.430686 98.012849 
L 201.285795 98.318114 
L 198.140904 98.88102 
L 194.996002 99.699354 
L 191.851111 100.771369 
L 188.70622 102.096883 
L 185.271482 103.836406 
L 182.416438 105.509724 
L 179.271547 107.596904 
L 176.126656 109.936832 
L 172.587525 112.878663 
L 169.679481 115.538165 
L 166.167826 119.044977 
L 162.563971 122.984734 
L 159.353897 126.787397 
L 155.673357 131.495116 
L 152.015811 136.553114 
L 148.62073 141.601177 
L 145.201882 147.049493 
L 141.532839 153.349655 
L 137.863796 160.229496 
L 134.718905 166.905609 
L 133.595929 169.791784 
L 133.159934 171.387473 
L 133.256434 171.91938 
L 133.670606 171.957986 
L 133.670606 171.957986 
" style="fill:none;stroke:#94c4df;stroke-width:1.5;"/>
   </g>
   <g id="LineCollection_4">
    <path clip-path="url(#p30d70b29f5)" d="M 145.201882 153.345127 
L 146.774322 152.243798 
L 162.498788 136.257349 
L 166.691972 132.440902 
L 170.999266 128.835614 
L 174.554205 126.10998 
L 178.26113 123.51663 
L 181.892291 121.225003 
L 185.561329 119.163767 
L 189.230367 117.358579 
L 192.899415 115.809608 
L 196.703485 114.474373 
L 200.237491 113.476118 
L 203.906539 112.684644 
L 207.575577 112.137523 
L 211.244615 111.827547 
L 214.913663 111.736848 
L 219.106847 111.877638 
L 224.348336 112.313703 
L 228.017374 112.577034 
L 229.589825 112.511456 
L 230.307116 112.346766 
L 230.638118 112.13536 
L 230.919701 111.81487 
L 230.970282 111.282974 
L 230.638118 110.467318 
L 230.113971 109.677626 
L 229.065678 108.548906 
L 227.294463 107.027783 
L 224.872483 105.355941 
L 222.169763 103.836406 
L 219.106847 102.469534 
L 216.486103 101.55086 
L 213.865359 100.850477 
L 211.244615 100.355822 
L 208.62387 100.058855 
L 206.003126 99.957669 
L 203.382382 100.045382 
L 200.761637 100.321454 
L 197.616746 100.89633 
L 194.471855 101.735156 
L 191.326964 102.837167 
L 188.182073 104.200646 
L 185.037182 105.825382 
L 181.892291 107.711924 
L 178.7474 109.860698 
L 175.511722 112.346766 
L 172.396863 115.006269 
L 169.012003 118.197646 
L 165.643679 121.689267 
L 162.498788 125.242037 
L 159.137083 129.36751 
L 155.941085 133.622701 
L 152.982508 137.877893 
L 149.919213 142.668379 
L 146.774322 148.223628 
L 145.396612 151.175341 
L 145.023873 152.239144 
L 144.921205 152.77104 
L 145.201882 153.345127 
L 145.201882 153.345127 
" style="fill:none;stroke:#4a98c9;stroke-width:1.5;"/>
   </g>
   <g id="LineCollection_5">
    <path clip-path="url(#p30d70b29f5)" d="M 157.257299 137.403624 
L 158.391879 136.814089 
L 160.503031 135.218401 
L 172.457608 125.590117 
L 176.650803 122.610788 
L 181.059564 119.793357 
L 184.513036 117.815583 
L 188.70622 115.697496 
L 192.899415 113.890608 
L 196.568453 112.557052 
L 200.761637 111.317406 
L 204.954833 110.351544 
L 209.672174 109.55419 
L 217.534397 108.315421 
L 218.185532 108.091597 
L 218.872889 107.559679 
L 218.988633 107.027783 
L 218.582701 106.294698 
L 218.058554 105.7711 
L 217.01025 105.027322 
L 215.961956 104.456438 
L 214.550126 103.836406 
L 212.292919 103.107135 
L 209.672174 102.533484 
L 207.05143 102.209209 
L 204.430686 102.121933 
L 201.809942 102.242807 
L 199.189197 102.576597 
L 196.568453 103.105655 
L 193.918592 103.836406 
L 190.802818 104.953521 
L 187.657927 106.356009 
L 185.037182 107.734654 
L 181.892291 109.639138 
L 179.271547 111.442948 
L 176.650803 113.437448 
L 173.505912 116.098072 
L 170.158134 119.26146 
L 167.107469 122.452838 
L 164.071228 125.961549 
L 161.397834 129.36751 
L 159.16608 132.558909 
L 157.781446 134.821381 
L 157.083055 136.282193 
L 156.92334 136.814089 
L 157.053292 137.345986 
L 157.257299 137.403624 
L 157.257299 137.403624 
" style="fill:none;stroke:#1764ab;stroke-width:1.5;"/>
   </g>
   <g id="LineCollection_6">
    <path clip-path="url(#p30d70b29f5)" d="M 172.457608 121.390168 
L 172.981765 121.489193 
L 174.030058 121.085216 
L 175.602509 120.28856 
L 182.416438 116.425211 
L 188.182073 113.470027 
L 194.996002 110.473037 
L 201.285795 107.949738 
L 202.979745 107.027783 
L 203.380788 106.495887 
L 203.069532 105.96399 
L 202.334088 105.713824 
L 200.761637 105.475497 
L 199.189197 105.490342 
L 197.0926 105.727767 
L 194.996002 106.142128 
L 192.375268 106.891191 
L 190.278671 107.662277 
L 187.008332 109.155389 
L 183.303632 111.282974 
L 179.795694 113.745109 
L 177.574804 115.538165 
L 174.75221 118.197646 
L 172.93775 120.325253 
L 172.457608 121.390168 
L 172.457608 121.390168 
" style="fill:none;stroke:#08306b;stroke-width:1.5;"/>
   </g>
   <g id="patch_3">
    <path d="M 54 315 
L 54 43.2 
" style="fill:none;stroke:#000000;stroke-linecap:square;stroke-linejoin:miter;stroke-width:0.8;"/>
   </g>
   <g id="patch_4">
    <path d="M 321.84 315 
L 321.84 43.2 
" style="fill:none;stroke:#000000;stroke-linecap:square;stroke-linejoin:miter;stroke-width:0.8;"/>
   </g>
   <g id="patch_5">
    <path d="M 54 315 
L 321.84 315 
" style="fill:none;stroke:#000000;stroke-linecap:square;stroke-linejoin:miter;stroke-width:0.8;"/>
   </g>
   <g id="patch_6">
    <path d="M 54 43.2 
L 321.84 43.2 
" style="fill:none;stroke:#000000;stroke-linecap:square;stroke-linejoin:miter;stroke-width:0.8;"/>
   </g>
   <g id="text_17">
    <!-- density $p_{Y}(\mathbf{y})$ -->
    <defs>
     <path d="M 29.203125 67.59375 
L 29.203125 65 
C 35.09375 65 36 64.40625 36 59.6875 
L 36 36.640625 
C 35.59375 37.140625 31.5 43.59375 23.40625 43.59375 
C 13.203125 43.59375 3.296875 34.5 3.296875 21.3125 
C 3.296875 8.203125 12.59375 -1 22.40625 -1 
C 30.90625 -1 35.296875 5.265625 35.796875 5.9375 
L 35.796875 -0.984375 
L 47.90625 -0.984375 
L 47.90625 2 
C 42 2 41.09375 2.59375 41.09375 7.390625 
L 41.09375 68.6875 
z
M 35.796875 11.796875 
C 35.796875 8.796875 34 6.09375 31.703125 4.09375 
C 28.296875 1.09375 24.90625 0.59375 23 0.59375 
C 20.09375 0.59375 9.703125 2.09375 9.703125 21.1875 
C 9.703125 40.8125 21.296875 42 23.90625 42 
C 28.5 42 32.203125 39.40625 34.5 35.796875 
C 35.796875 33.703125 35.796875 33.40625 35.796875 31.609375 
z
" id="CMR17-100"/>
     <path d="M 38.09375 23 
C 38.5 23.40625 38.5 23.609375 38.5 24.625 
C 38.5 34.96875 33.09375 44 21.703125 44 
C 11.09375 44 2.703125 33.890625 2.703125 21.609375 
C 2.703125 8.609375 12.203125 -1 22.796875 -1 
C 34 -1 38.40625 9.484375 38.40625 11.5625 
C 38.40625 12.25 37.796875 12.25 37.59375 12.25 
C 36.90625 12.25 36.796875 12.046875 36.40625 10.875 
C 34.203125 4.140625 28.703125 0.796875 23.5 0.796875 
C 19.203125 0.796875 14.90625 3.171875 12.203125 7.5 
C 9.09375 12.546875 9.09375 18.375 9.09375 23 
z
M 9.203125 24.5 
C 9.90625 39.140625 17.59375 42.40625 21.59375 42.40625 
C 28.40625 42.40625 33 35.890625 33.09375 24.5 
z
" id="CMR17-101"/>
     <path d="M 41.5 30.203125 
C 41.5 35.296875 40.5 43.59375 28.703125 43.59375 
C 20.796875 43.59375 16.703125 37.5 15.203125 33.5 
L 15.09375 33.5 
L 15.09375 43.59375 
L 3.296875 42.5 
L 3.296875 39.90625 
C 9.203125 39.90625 10.09375 39.296875 10.09375 34.5 
L 10.09375 6.6875 
C 10.09375 2.875 9.703125 2.390625 3.296875 2.390625 
L 3.296875 -0.203125 
C 5.703125 0 10.09375 0 12.703125 0 
C 15.296875 0 19.796875 0 22.203125 -0.203125 
L 22.203125 2.390625 
C 15.796875 2.390625 15.40625 2.78125 15.40625 6.6875 
L 15.40625 25.90625 
C 15.40625 35.109375 21 42 28 42 
C 35.40625 42 36.203125 35.40625 36.203125 30.59375 
L 36.203125 6.6875 
C 36.203125 2.875 35.796875 2.390625 29.40625 2.390625 
L 29.40625 -0.203125 
C 31.796875 0 36.203125 0 38.796875 0 
C 41.40625 0 45.90625 0 48.296875 -0.203125 
L 48.296875 2.390625 
C 41.90625 2.390625 41.5 2.78125 41.5 6.6875 
z
" id="CMR17-110"/>
     <path d="M 30.90625 42.140625 
C 30.90625 43.953125 30.796875 44.046875 30.203125 44.046875 
C 29.796875 44.046875 29.703125 43.953125 28.5 42.453125 
C 28.203125 42.046875 27.296875 41.03125 27 40.640625 
C 23.796875 44.046875 19.296875 44.046875 17.59375 44.046875 
C 6.5 44.046875 2.5 38.234375 2.5 32.4375 
C 2.5 23.40625 12.703125 21.328125 15.59375 20.703125 
C 21.90625 19.421875 24.09375 19.015625 26.203125 17.203125 
C 27.5 16.015625 29.703125 13.8125 29.703125 10.21875 
C 29.703125 6 27.296875 0.59375 18.09375 0.59375 
C 9.40625 0.59375 6.296875 7.1875 4.5 15.953125 
C 4.203125 17.34375 4.203125 17.453125 3.40625 17.453125 
C 2.59375 17.453125 2.5 17.34375 2.5 15.359375 
L 2.5 0.984375 
C 2.5 -0.796875 2.59375 -0.90625 3.203125 -0.90625 
C 3.703125 -0.90625 3.796875 -0.796875 4.296875 0 
C 4.90625 0.890625 6.40625 3.296875 7 4.3125 
C 9 1.609375 12.5 -1 18.09375 -1 
C 28 -1 33.296875 4.421875 33.296875 12.25 
C 33.296875 17.375 30.59375 20.078125 29.296875 21.28125 
C 26.296875 24.390625 22.796875 25.09375 18.59375 25.890625 
C 13.09375 27.109375 6.09375 28.515625 6.09375 34.640625 
C 6.09375 37.234375 7.5 42.765625 17.59375 42.765625 
C 28.296875 42.765625 28.90625 32.71875 29.09375 29.5 
C 29.203125 29 29.703125 28.890625 30 28.890625 
C 30.90625 28.890625 30.90625 29.203125 30.90625 30.90625 
z
" id="CMR17-115"/>
     <path d="M 15.5 61.078125 
C 15.5 63.265625 13.703125 65.15625 11.40625 65.15625 
C 9.203125 65.15625 7.296875 63.375 7.296875 61.078125 
C 7.296875 58.890625 9.09375 57 11.40625 57 
C 13.59375 57 15.5 58.796875 15.5 61.078125 
z
M 3.796875 42.28125 
L 3.796875 39.703125 
C 9.40625 39.703125 10.203125 39.09375 10.203125 34.328125 
L 10.203125 6.671875 
C 10.203125 2.875 9.796875 2.390625 3.40625 2.390625 
L 3.40625 -0.203125 
C 5.796875 0 10.09375 0 12.59375 0 
C 15 0 19.09375 0 21.40625 -0.203125 
L 21.40625 2.390625 
C 15.5 2.390625 15.296875 2.984375 15.296875 6.5625 
L 15.296875 43.375 
z
" id="CMR17-105"/>
     <path d="M 15.09375 40 
L 29.09375 40 
L 29.09375 42.578125 
L 15.09375 42.578125 
L 15.09375 61 
L 13.296875 61 
C 13.09375 50.703125 9.59375 41.6875 1.09375 41.6875 
L 1.09375 40 
L 9.796875 40 
L 9.796875 12.046875 
C 9.796875 10.15625 9.796875 -1 21.40625 -1 
C 27.296875 -1 30.703125 4.78125 30.703125 12.140625 
L 30.703125 17.8125 
L 28.90625 17.8125 
L 28.90625 12.234375 
C 28.90625 5.375 26.203125 0.796875 22 0.796875 
C 19.09375 0.796875 15.09375 2.78125 15.09375 11.84375 
z
" id="CMR17-116"/>
     <path d="M 39 34.328125 
C 41.5 40.40625 46 40.40625 47.40625 40.40625 
L 47.40625 43 
C 45.5 43 43 43 41.09375 43 
C 39 43 35.703125 43 33.703125 43.09375 
L 33.703125 40.5 
C 37.5 40.203125 37.59375 37.40625 37.59375 36.609375 
C 37.59375 35.625 37.40625 35.125 36.90625 33.921875 
L 26 7.015625 
L 14.09375 36.03125 
C 13.59375 37.21875 13.59375 37.90625 13.59375 38.015625 
C 13.59375 40.203125 15.90625 40.40625 18.296875 40.40625 
L 18.296875 43.09375 
C 15.90625 43 11.59375 43 9.09375 43 
C 6.40625 43 3.203125 43 1 43.09375 
L 1 40.40625 
C 6.40625 40.40625 7 39.90625 8.296875 36.71875 
L 23.203125 0.234375 
C 18.703125 -11.53125 16.09375 -18.40625 9.796875 -18.40625 
C 8.703125 -18.40625 6.203125 -18.109375 4.40625 -16.3125 
C 6.703125 -16.109375 7.703125 -14.71875 7.703125 -13.015625 
C 7.703125 -11.328125 6.5 -9.828125 4.5 -9.828125 
C 2.296875 -9.828125 1.203125 -11.328125 1.203125 -13.125 
C 1.203125 -17.109375 5.296875 -20 9.796875 -20 
C 15.59375 -20 19.203125 -14.40625 21.203125 -9.4375 
z
" id="CMR17-121"/>
     <path d="M 4.296875 -12.328125 
C 3.59375 -15.3125 3.203125 -16.109375 -0.90625 -16.109375 
C -2.09375 -16.109375 -3.09375 -16.109375 -3.09375 -18 
C -3.09375 -18.203125 -3 -19 -1.90625 -19 
C -0.59375 -19 0.796875 -19 2.09375 -19 
L 6.40625 -19 
C 8.5 -19 13.59375 -19 15.703125 -19 
C 16.296875 -19 17.5 -19 17.5 -17.203125 
C 17.5 -16.109375 16.796875 -16.109375 15.09375 -16.109375 
C 10.5 -16.109375 10.203125 -15.421875 10.203125 -14.640625 
C 10.203125 -13.453125 14.703125 3.421875 15.296875 5.6875 
C 16.40625 2.890625 19.09375 -1 24.296875 -1 
C 35.59375 -1 47.796875 13.671875 47.796875 28.34375 
C 47.796875 37.515625 42.59375 44 35.09375 44 
C 28.703125 44 23.296875 37.8125 22.203125 36.421875 
C 21.40625 41.40625 17.5 44 13.5 44 
C 10.59375 44 8.296875 42.609375 6.40625 38.8125 
C 4.59375 35.21875 3.203125 29.140625 3.203125 28.734375 
C 3.203125 28.34375 3.59375 27.84375 4.296875 27.84375 
C 5.09375 27.84375 5.203125 27.9375 5.796875 30.234375 
C 7.296875 36.125 9.203125 42.015625 13.203125 42.015625 
C 15.5 42.015625 16.296875 40.421875 16.296875 37.453125 
C 16.296875 35.078125 16 34.078125 15.59375 32.296875 
z
M 21.59375 31.140625 
C 22.296875 33.921875 25.09375 36.828125 26.703125 38.21875 
C 27.796875 39.21875 31.09375 42.015625 34.90625 42.015625 
C 39.296875 42.015625 41.296875 37.625 41.296875 32.4375 
C 41.296875 27.640625 38.5 16.359375 36 11.171875 
C 33.5 5.78125 28.90625 1 24.296875 1 
C 17.5 1 16.40625 9.578125 16.40625 9.984375 
C 16.40625 10.28125 16.59375 11.078125 16.703125 11.578125 
z
" id="CMMI12-112"/>
     <path d="M 58.796875 56.953125 
L 61.09375 59.234375 
C 65.5 63.71875 69.203125 64.828125 72.703125 65.109375 
C 73.796875 65.203125 74.703125 65.296875 74.703125 67 
C 74.703125 68 73.703125 68 73.5 68 
C 72.296875 68 71 68 69.796875 68 
L 65.703125 68 
C 62.796875 68 59.703125 68 56.90625 68 
C 56.203125 68 55.09375 68 55.09375 66.03125 
C 55.09375 65.09375 56.09375 65 56.40625 65 
C 59.40625 65 59.40625 63.5 59.40625 62.90625 
C 59.40625 61.8125 58.59375 60.3125 56.59375 58.015625 
L 32.796875 30.765625 
L 21.5 61.109375 
C 20.90625 62.5 20.90625 62.703125 20.90625 62.90625 
C 20.90625 65 25 65 26.203125 65 
C 27.40625 65 28.5 65 28.5 66.859375 
C 28.5 68 27.59375 68 27 68 
C 25.296875 68 23.296875 68 21.59375 68 
L 10.5 68 
C 8.703125 68 6.796875 68 5.09375 68 
C 4.40625 68 3.296875 68 3.296875 66.03125 
C 3.296875 65 4.203125 65 5.703125 65 
C 10.59375 65 11.5 64.09375 12.40625 61.8125 
L 24.796875 28.671875 
C 24.90625 28.375 25.203125 27.265625 25.203125 26.96875 
C 25.203125 26.671875 20.296875 7.0625 20 6.0625 
C 19.203125 3.390625 18.203125 2.890625 11.796875 2.890625 
C 10.09375 2.890625 9.296875 2.890625 9.296875 1 
C 9.296875 0 10.40625 0 10.703125 0 
C 12.5 0 14.59375 0 16.5 0 
L 28.296875 0 
C 30.09375 0 32.203125 0 34 0 
C 34.703125 0 35.90625 0 35.90625 1.796875 
C 35.90625 2.890625 35.203125 2.890625 33.5 2.890625 
C 27.296875 2.890625 27.296875 3.59375 27.296875 4.6875 
C 27.296875 5.390625 28.09375 8.5625 28.59375 10.5625 
L 32.203125 24.90625 
C 32.796875 26.984375 32.796875 27.171875 33.703125 28.171875 
z
" id="CMMI12-89"/>
     <path d="M 30.59375 -24.390625 
C 30.59375 -24.296875 30.59375 -24.09375 30.296875 -23.796875 
C 25.703125 -19.125 13.40625 -6.359375 13.40625 24.703125 
C 13.40625 55.765625 25.5 68.421875 30.40625 73.390625 
C 30.40625 73.5 30.59375 73.703125 30.59375 74 
C 30.59375 74.296875 30.296875 74.5 29.90625 74.5 
C 28.796875 74.5 20.296875 67.125 15.40625 56.15625 
C 10.40625 45.109375 9 34.359375 9 24.8125 
C 9 17.625 9.703125 5.484375 15.703125 -7.359375 
C 20.5 -17.734375 28.703125 -25 29.90625 -25 
C 30.40625 -25 30.59375 -24.796875 30.59375 -24.390625 
z
" id="CMR17-40"/>
     <path d="M 49.5 37.828125 
C 50.09375 39.203125 50.5 40 56.90625 40 
L 56.90625 44.171875 
C 53.5 44.171875 53.09375 44.171875 49 44.171875 
C 46.296875 44.171875 46.09375 44.171875 40.40625 44.171875 
L 40.40625 40 
C 40.5 40 45.203125 40 45.203125 38.71875 
C 45.203125 38.421875 44.90625 37.828125 44.796875 37.53125 
L 33.09375 12.578125 
L 20.296875 40 
L 25.796875 40 
L 25.796875 44.265625 
C 23.40625 44.171875 16.59375 44.171875 13.796875 44.171875 
C 10.90625 44.171875 5 44.171875 2.40625 44.265625 
L 2.40625 40 
L 8.796875 40 
L 27.296875 0.3125 
C 26.796875 -0.875 25.40625 -3.75 24.90625 -4.9375 
C 22.796875 -9.390625 19.59375 -16.21875 12.59375 -16.21875 
C 12.203125 -16.21875 11 -16.21875 9.90625 -15.625 
C 10.09375 -15.515625 13.09375 -14.328125 13.09375 -10.5625 
C 13.09375 -7.3125 10.703125 -5.234375 7.703125 -5.234375 
C 4.59375 -5.234375 2.203125 -7.328125 2.203125 -10.6875 
C 2.203125 -15.34375 6.59375 -19.5 12.59375 -19.5 
C 20.796875 -19.5 26.203125 -12.171875 28.203125 -7.8125 
z
" id="CMBX12-121"/>
     <path d="M 26.296875 24.703125 
C 26.296875 31.875 25.59375 44.015625 19.59375 56.859375 
C 14.796875 67.234375 6.59375 74.5 5.40625 74.5 
C 5.09375 74.5 4.703125 74.390625 4.703125 73.890625 
C 4.703125 73.703125 4.796875 73.59375 4.90625 73.390625 
C 9.703125 68.40625 21.90625 55.75 21.90625 24.75 
C 21.90625 -6.359375 9.796875 -19.015625 4.90625 -24.015625 
C 4.796875 -24.203125 4.703125 -24.3125 4.703125 -24.5 
C 4.703125 -25 5.09375 -25 5.40625 -25 
C 6.5 -25 15 -17.625 19.90625 -6.65625 
C 24.90625 4.390625 26.296875 15.140625 26.296875 24.703125 
z
" id="CMR17-41"/>
    </defs>
    <g transform="translate(139.112838 37.2)scale(0.168 -0.168)">
     <use transform="translate(0 14.943915)scale(0.996264)" xlink:href="#CMR17-100"/>
     <use transform="translate(50.89537 14.943915)scale(0.996264)" xlink:href="#CMR17-101"/>
     <use transform="translate(91.38103 14.943915)scale(0.996264)" xlink:href="#CMR17-110"/>
     <use transform="translate(142.2764 14.943915)scale(0.996264)" xlink:href="#CMR17-115"/>
     <use transform="translate(178.077738 14.943915)scale(0.996264)" xlink:href="#CMR17-105"/>
     <use transform="translate(202.948796 14.943915)scale(0.996264)" xlink:href="#CMR17-116"/>
     <use transform="translate(235.62711 14.943915)scale(0.996264)" xlink:href="#CMR17-121"/>
     <use transform="translate(313.995992 14.943915)scale(0.996264)" xlink:href="#CMMI12-112"/>
     <use transform="translate(362.955506 0)scale(0.697382)" xlink:href="#CMMI12-89"/>
     <use transform="translate(418.246836 14.943915)scale(0.996264)" xlink:href="#CMR17-40"/>
     <use transform="translate(453.527604 14.943915)scale(0.996264)" xlink:href="#CMBX12-121"/>
     <use transform="translate(514.237442 14.943915)scale(0.996264)" xlink:href="#CMR17-41"/>
    </g>
   </g>
  </g>
  <g id="axes_2">
   <g id="patch_7">
    <path clip-path="url(#pa8a74a5a58)" d="M 338.58 315 
L 338.58 260.64 
L 338.58 97.56 
L 338.58 43.2 
L 352.17 43.2 
L 352.17 97.56 
L 352.17 260.64 
L 352.17 315 
z
" style="fill:#ffffff;stroke:#ffffff;stroke-linejoin:miter;stroke-width:0.01;"/>
   </g>
   <g id="matplotlib.axis_3"/>
   <g id="matplotlib.axis_4">
    <g id="ytick_8">
     <g id="line2d_15">
      <defs>
       <path d="M 0 0 
L 3.5 0 
" id="m8a3489b075" style="stroke:#000000;stroke-width:0.8;"/>
      </defs>
      <g>
       <use style="stroke:#000000;stroke-width:0.8;" x="352.17" xlink:href="#m8a3489b075" y="315"/>
      </g>
     </g>
     <g id="text_18">
      <!-- $0.08$ -->
      <defs>
       <path d="M 18.40625 4.796875 
C 18.40625 7.6875 16 9.671875 13.59375 9.671875 
C 10.703125 9.671875 8.703125 7.28125 8.703125 4.890625 
C 8.703125 2 11.09375 0 13.5 0 
C 16.40625 0 18.40625 2.390625 18.40625 4.796875 
z
" id="CMMI12-58"/>
      </defs>
      <g transform="translate(359.17 319.842938)scale(0.14 -0.14)">
       <use transform="scale(0.996264)" xlink:href="#CMR17-48"/>
       <use transform="translate(45.690477 0)scale(0.996264)" xlink:href="#CMMI12-58"/>
       <use transform="translate(72.787654 0)scale(0.996264)" xlink:href="#CMR17-48"/>
       <use transform="translate(118.478131 0)scale(0.996264)" xlink:href="#CMR17-56"/>
      </g>
     </g>
    </g>
    <g id="ytick_9">
     <g id="line2d_16">
      <g>
       <use style="stroke:#000000;stroke-width:0.8;" x="352.17" xlink:href="#m8a3489b075" y="260.64"/>
      </g>
     </g>
     <g id="text_19">
      <!-- $0.16$ -->
      <g transform="translate(359.17 265.482938)scale(0.14 -0.14)">
       <use transform="scale(0.996264)" xlink:href="#CMR17-48"/>
       <use transform="translate(45.690477 0)scale(0.996264)" xlink:href="#CMMI12-58"/>
       <use transform="translate(72.787654 0)scale(0.996264)" xlink:href="#CMR17-49"/>
       <use transform="translate(118.478131 0)scale(0.996264)" xlink:href="#CMR17-54"/>
      </g>
     </g>
    </g>
    <g id="ytick_10">
     <g id="line2d_17">
      <g>
       <use style="stroke:#000000;stroke-width:0.8;" x="352.17" xlink:href="#m8a3489b075" y="206.28"/>
      </g>
     </g>
     <g id="text_20">
      <!-- $0.24$ -->
      <g transform="translate(359.17 211.122938)scale(0.14 -0.14)">
       <use transform="scale(0.996264)" xlink:href="#CMR17-48"/>
       <use transform="translate(45.690477 0)scale(0.996264)" xlink:href="#CMMI12-58"/>
       <use transform="translate(72.787654 0)scale(0.996264)" xlink:href="#CMR17-50"/>
       <use transform="translate(118.478131 0)scale(0.996264)" xlink:href="#CMR17-52"/>
      </g>
     </g>
    </g>
    <g id="ytick_11">
     <g id="line2d_18">
      <g>
       <use style="stroke:#000000;stroke-width:0.8;" x="352.17" xlink:href="#m8a3489b075" y="151.92"/>
      </g>
     </g>
     <g id="text_21">
      <!-- $0.32$ -->
      <g transform="translate(359.17 156.762938)scale(0.14 -0.14)">
       <use transform="scale(0.996264)" xlink:href="#CMR17-48"/>
       <use transform="translate(45.690477 0)scale(0.996264)" xlink:href="#CMMI12-58"/>
       <use transform="translate(72.787654 0)scale(0.996264)" xlink:href="#CMR17-51"/>
       <use transform="translate(118.478131 0)scale(0.996264)" xlink:href="#CMR17-50"/>
      </g>
     </g>
    </g>
    <g id="ytick_12">
     <g id="line2d_19">
      <g>
       <use style="stroke:#000000;stroke-width:0.8;" x="352.17" xlink:href="#m8a3489b075" y="97.56"/>
      </g>
     </g>
     <g id="text_22">
      <!-- $0.40$ -->
      <g transform="translate(359.17 102.402938)scale(0.14 -0.14)">
       <use transform="scale(0.996264)" xlink:href="#CMR17-48"/>
       <use transform="translate(45.690477 0)scale(0.996264)" xlink:href="#CMMI12-58"/>
       <use transform="translate(72.787654 0)scale(0.996264)" xlink:href="#CMR17-52"/>
       <use transform="translate(118.478131 0)scale(0.996264)" xlink:href="#CMR17-48"/>
      </g>
     </g>
    </g>
    <g id="ytick_13">
     <g id="line2d_20">
      <g>
       <use style="stroke:#000000;stroke-width:0.8;" x="352.17" xlink:href="#m8a3489b075" y="43.2"/>
      </g>
     </g>
     <g id="text_23">
      <!-- $0.48$ -->
      <g transform="translate(359.17 48.042938)scale(0.14 -0.14)">
       <use transform="scale(0.996264)" xlink:href="#CMR17-48"/>
       <use transform="translate(45.690477 0)scale(0.996264)" xlink:href="#CMMI12-58"/>
       <use transform="translate(72.787654 0)scale(0.996264)" xlink:href="#CMR17-52"/>
       <use transform="translate(118.478131 0)scale(0.996264)" xlink:href="#CMR17-56"/>
      </g>
     </g>
    </g>
   </g>
   <g id="LineCollection_7">
    <path clip-path="url(#pa8a74a5a58)" d="M 338.58 315 
L 352.17 315 
" style="fill:none;stroke:#f7fbff;stroke-width:1.5;"/>
    <path clip-path="url(#pa8a74a5a58)" d="M 338.58 260.64 
L 352.17 260.64 
" style="fill:none;stroke:#d0e1f2;stroke-width:1.5;"/>
    <path clip-path="url(#pa8a74a5a58)" d="M 338.58 206.28 
L 352.17 206.28 
" style="fill:none;stroke:#94c4df;stroke-width:1.5;"/>
    <path clip-path="url(#pa8a74a5a58)" d="M 338.58 151.92 
L 352.17 151.92 
" style="fill:none;stroke:#4a98c9;stroke-width:1.5;"/>
    <path clip-path="url(#pa8a74a5a58)" d="M 338.58 97.56 
L 352.17 97.56 
" style="fill:none;stroke:#1764ab;stroke-width:1.5;"/>
    <path clip-path="url(#pa8a74a5a58)" d="M 338.58 43.2 
L 352.17 43.2 
" style="fill:none;stroke:#08306b;stroke-width:1.5;"/>
   </g>
   <g id="patch_8">
    <path d="M 338.58 315 
L 338.58 260.64 
L 338.58 97.56 
L 338.58 43.2 
L 352.17 43.2 
L 352.17 97.56 
L 352.17 260.64 
L 352.17 315 
z
" style="fill:none;stroke:#000000;stroke-linejoin:miter;stroke-width:0.8;"/>
   </g>
  </g>
 </g>
 <defs>
  <clipPath id="p30d70b29f5">
   <rect height="271.8" width="267.84" x="54" y="43.2"/>
  </clipPath>
  <clipPath id="pa8a74a5a58">
   <rect height="271.8" width="13.59" x="338.58" y="43.2"/>
  </clipPath>
 </defs>
</svg>
